<svg width="256" height="256" viewBox="0 0 256 256" fill="none" xmlns="http://www.w3.org/2000/svg">
  <defs>
    <radialGradient id="g" cx="50%" cy="45%" r="70%">
      <stop offset="0%" stop-color="#2cf39a" stop-opacity="0.95"/>
      <stop offset="45%" stop-color="#17d47b" stop-opacity="0.45"/>
      <stop offset="100%" stop-color="#0b101d"/>
    </radialGradient>
    <linearGradient id="ring" x1="44" y1="34" x2="217" y2="230" gradientUnits="userSpaceOnUse">
      <stop stop-color="#4affb3"/>
      <stop offset="1" stop-color="#1f7aff"/>
    </linearGradient>
    <filter id="shadow" x="-40%" y="-40%" width="180%" height="180%">
      <feDropShadow dx="0" dy="18" stdDeviation="18" flood-color="#000000" flood-opacity="0.45"/>
    </filter>
  </defs>
  <rect x="20" y="20" width="216" height="216" rx="56" fill="#111827"/>
  <rect x="20" y="20" width="216" height="216" rx="56" fill="url(#g)" opacity="0.45"/>
  <g filter="url(#shadow)">
    <circle cx="128" cy="128" r="74" stroke="url(#ring)" stroke-width="12"/>
    <path d="M128 78v55l38 25" stroke="#f8fbff" stroke-width="12" stroke-linecap="round" stroke-linejoin="round"/>
    <circle cx="128" cy="128" r="9" fill="#f8fbff"/>
  </g>
  <path d="M75 178c23-18 10-38 32-55 16-13 41-15 69-2" stroke="#d9fff0" stroke-opacity="0.56" stroke-width="8" stroke-linecap="round"/>
  <path d="M69 198c21-12 32-14 51-10 20 4 34 3 52-10" stroke="#d9fff0" stroke-opacity="0.36" stroke-width="7" stroke-linecap="round"/>
</svg>
